<svg xmlns="http://www.w3.org/2000/svg" viewBox="0 0 617 464">
  <g id="Group_243" data-name="Group 243" transform="translate(-173 -424.931)">
    <g id="Group_5" data-name="Group 5" transform="translate(171 424.931)">
      <path id="Subtraction_1" data-name="Subtraction 1" d="M231,464A229.779,229.779,0,0,1,67.658,396.047a232.455,232.455,0,0,1,0-328.1A231.075,231.075,0,0,1,462,232a232.128,232.128,0,0,1-141.084,213.77A228.7,228.7,0,0,1,231,464Zm0-377C150.8,87,85.557,152.046,85.557,232S150.8,377,231,377s145.443-65.047,145.443-145S311.2,87,231,87Z" transform="translate(2 0)" fill="#fff"/>
      <path id="Subtraction_2" data-name="Subtraction 2" d="M232,464A232.061,232.061,0,0,1,141.695,18.231,232.06,232.06,0,0,1,322.305,445.768,230.544,230.544,0,0,1,232,464Zm0-377C151.455,87,85.928,152.046,85.928,232S151.455,377,232,377s146.072-65.047,146.072-145S312.545,87,232,87Z" transform="translate(155 0)" fill="#e67e22"/>
    </g>
  </g>
</svg>
